<?xml version="1.0" encoding="UTF-8" standalone="no"?>
<!-- Created with Inkscape (http://www.inkscape.org/) -->

<svg
   width="368.22299mm"
   height="159.69592mm"
   viewBox="0 0 368.22299 159.69592"
   version="1.1"
   id="svg1"
   inkscape:export-filename="logo.png"
   inkscape:export-xdpi="35.061745"
   inkscape:export-ydpi="35.061745"
   inkscape:version="1.3.2 (091e20ef0f, 2023-11-25)"
   sodipodi:docname="logo.svg"
   xmlns:inkscape="http://www.inkscape.org/namespaces/inkscape"
   xmlns:sodipodi="http://sodipodi.sourceforge.net/DTD/sodipodi-0.dtd"
   xmlns="http://www.w3.org/2000/svg"
   xmlns:svg="http://www.w3.org/2000/svg">
  <sodipodi:namedview
     id="namedview1"
     pagecolor="#505050"
     bordercolor="#eeeeee"
     borderopacity="1"
     inkscape:showpageshadow="0"
     inkscape:pageopacity="0"
     inkscape:pagecheckerboard="0"
     inkscape:deskcolor="#d1d1d1"
     inkscape:document-units="mm"
     inkscape:zoom="0.33729693"
     inkscape:cx="668.5504"
     inkscape:cy="378.00522"
     inkscape:window-width="1366"
     inkscape:window-height="696"
     inkscape:window-x="0"
     inkscape:window-y="0"
     inkscape:window-maximized="1"
     inkscape:current-layer="layer1" />
  <defs
     id="defs1">
    <inkscape:perspective
       sodipodi:type="inkscape:persp3d"
       inkscape:vp_x="17.423051 : 268.74966 : 1"
       inkscape:vp_y="0 : 1000 : 0"
       inkscape:vp_z="192.85711 : 267.52261 : 1"
       inkscape:persp3d-origin="105 : 180.09185 : 1"
       id="perspective16" />
    <filter
       style="color-interpolation-filters:sRGB"
       inkscape:label="Drop Shadow"
       id="filter94"
       x="-0.026534523"
       y="-0.12801588"
       width="1.0713503"
       height="1.3436617">
      <feFlood
         result="flood"
         in="SourceGraphic"
         flood-opacity="0.749020"
         flood-color="rgb(19,19,19)"
         id="feFlood93" />
      <feGaussianBlur
         result="blur"
         in="SourceGraphic"
         stdDeviation="1.400000"
         id="feGaussianBlur93" />
      <feOffset
         result="offset"
         in="blur"
         dx="2.314907"
         dy="2.300000"
         id="feOffset93" />
      <feComposite
         result="comp1"
         operator="in"
         in="flood"
         in2="offset"
         id="feComposite93" />
      <feComposite
         result="comp2"
         operator="over"
         in="SourceGraphic"
         in2="comp1"
         id="feComposite94" />
    </filter>
    <filter
       style="color-interpolation-filters:sRGB"
       inkscape:label="Drop Shadow"
       id="filter96"
       x="-0.027321896"
       y="-0.14924596"
       width="1.0734675"
       height="1.4006543">
      <feFlood
         result="flood"
         in="SourceGraphic"
         flood-opacity="0.749020"
         flood-color="rgb(19,19,19)"
         id="feFlood94" />
      <feGaussianBlur
         result="blur"
         in="SourceGraphic"
         stdDeviation="1.400000"
         id="feGaussianBlur94" />
      <feOffset
         result="offset"
         in="blur"
         dx="2.314907"
         dy="2.300000"
         id="feOffset94" />
      <feComposite
         result="comp1"
         operator="in"
         in="flood"
         in2="offset"
         id="feComposite95" />
      <feComposite
         result="comp2"
         operator="over"
         in="SourceGraphic"
         in2="comp1"
         id="feComposite96" />
    </filter>
    <filter
       style="color-interpolation-filters:sRGB"
       inkscape:label="Drop Shadow"
       id="filter98"
       x="-0.048379204"
       y="-0.045410516"
       width="1.1300898"
       height="1.1219056">
      <feFlood
         result="flood"
         in="SourceGraphic"
         flood-opacity="0.749020"
         flood-color="rgb(19,19,19)"
         id="feFlood96" />
      <feGaussianBlur
         result="blur"
         in="SourceGraphic"
         stdDeviation="1.400000"
         id="feGaussianBlur96" />
      <feOffset
         result="offset"
         in="blur"
         dx="2.314907"
         dy="2.300000"
         id="feOffset96" />
      <feComposite
         result="comp1"
         operator="in"
         in="flood"
         in2="offset"
         id="feComposite97" />
      <feComposite
         result="comp2"
         operator="over"
         in="SourceGraphic"
         in2="comp1"
         id="feComposite98" />
    </filter>
  </defs>
  <g
     inkscape:label="Слой 1"
     inkscape:groupmode="layer"
     id="layer1"
     transform="translate(-82.599492,-98.350279)">
    <path
       id="path98"
       style="fill:#000000;stroke-width:0.499998"
       d="m 160.45312,100.94922 c -24.89267,9.01462 -49.79249,18.01367 -74.687495,27.02344 0,27.39453 0,54.78906 0,82.18359 24.963655,13.73873 49.926905,27.47818 74.890625,41.2168 24.96501,-13.73863 49.92958,-27.47806 74.89453,-41.2168 0,-27.39453 0,-54.78906 0,-82.18359 -24.97166,-9.03154 -49.94407,-18.06102 -74.91601,-27.0918 l -0.0936,0.0352 z" />
    <rect
       style="fill:#1a1a1a;fill-opacity:1;stroke-width:0.243955;filter:url(#filter96)"
       id="rect27"
       width="122.97829"
       height="22.513172"
       x="133.48376"
       y="141.29221"
       transform="matrix(2.0495524,0,0,2.0495524,-93.92019,-110.00795)" />
    <rect
       style="fill:#333333;fill-opacity:1;stroke-width:0.243955;filter:url(#filter94)"
       id="rect26"
       width="126.62749"
       height="26.246744"
       x="133.48376"
       y="115.04546"
       transform="matrix(2.0495524,0,0,2.0495524,-93.92019,-110.00795)" />
    <g
       id="g24"
       transform="matrix(2.0495427,0,0,1.9237769,-93.919324,-96.82489)"
       style="stroke-width:0.503608;filter:url(#filter98)">
      <path
         id="rect21"
         style="fill:#cccccc;stroke-width:0.251804"
         d="m 89.485952,118.19415 34.725668,20.35986 v 40.25182 L 89.485952,158.44598 Z" />
      <path
         id="rect22"
         style="fill:#808080;stroke-width:0.251804"
         d="M 158.93727,118.19414 124.21161,138.554 v 40.25183 l 34.72566,-20.35986 z" />
      <path
         id="rect23"
         style="fill:#ffffff;stroke-width:0.251804"
         inkscape:transform-center-x="-34.02992"
         inkscape:transform-center-y="-1.0456904"
         d="m 89.485952,118.19415 34.725658,20.35986 34.72567,-20.35986 -34.72567,-13.37999 z"
         sodipodi:nodetypes="ccccc" />
    </g>
    <path
       style="font-weight:bold;font-size:138.613px;line-height:1;font-family:'Sofia Sans';-inkscape-font-specification:'Sofia Sans Bold';letter-spacing:14.8514px;word-spacing:0px;text-orientation:upright;white-space:pre;mix-blend-mode:difference;fill:#b2b2b2;stroke-width:0.499999"
       d="m 125.45035,216.57515 q -1.52474,0 -1.52474,-1.66336 v -87.4648 q 0,-1.66336 1.52474,-1.66336 h 13.44546 q 0.69307,0 1.1089,0.55445 0.55446,0.41584 0.55446,1.10891 v 36.45522 h 9.56429 l 25.92064,-37.14829 q 0.55445,-0.97029 1.94058,-0.97029 h 15.10882 q 0.97029,0 1.24751,0.69307 0.41584,0.55445 -0.27722,1.24751 l -29.52457,41.44529 32.43544,45.46507 q 0.41584,0.55445 0.41584,0.97029 0,0.97029 -1.38613,0.97029 h -16.35634 q -1.24751,0 -2.07919,-0.97029 l -26.89092,-37.2869 h -10.11875 v 36.59383 q 0,0.69307 -0.55446,1.24752 -0.41583,0.41584 -1.1089,0.41584 z"
       id="text24"
       aria-label="К" />
    <g
       id="text25"
       style="font-weight:bold;font-size:52.0586px;line-height:1;font-family:'Sofia Sans';-inkscape-font-specification:'Sofia Sans Bold';letter-spacing:0px;word-spacing:0px;text-orientation:upright;white-space:pre;fill:#ffffff;stroke-width:0.499999"
       aria-label="Калоян&#10;Иванов">
      <path
         style="stroke-width:0.500001"
         d="m 260.86477,166.69344 q -0.57264,0 -0.57264,-0.62471 v -32.84898 q 0,-0.6247 0.57264,-0.6247 h 5.04968 q 0.2603,0 0.41647,0.20824 0.20824,0.15617 0.20824,0.41646 v 13.69142 h 3.59204 l 9.73496,-13.95171 q 0.20823,-0.36441 0.72882,-0.36441 h 5.67439 q 0.36441,0 0.46852,0.26029 0.15618,0.20824 -0.10411,0.46853 l -11.08848,15.56552 12.18171,17.07523 q 0.15617,0.20823 0.15617,0.36441 0,0.36441 -0.52058,0.36441 h -6.14292 q -0.46852,0 -0.78088,-0.36441 l -10.09936,-14.00377 h -3.80028 v 13.74347 q 0,0.2603 -0.20824,0.46853 -0.15617,0.15618 -0.41647,0.15618 z m 50.18445,-0.57265 q 0,0.57265 -0.57264,0.57265 h -4.32086 q -0.52059,0 -0.67677,-0.67677 -0.20823,-1.19734 -0.46852,-3.27969 -2.29058,2.34264 -4.32087,3.48793 -2.03028,1.09323 -4.47704,1.09323 -3.12351,0 -4.78939,-1.87411 -1.66587,-1.87411 -1.66587,-5.36204 0,-2.70704 1.04117,-4.37292 1.04117,-1.71793 3.38381,-2.65499 2.34263,-0.93705 6.35115,-1.30146 l 4.06057,-0.36441 v -2.08235 q 0,-2.23852 -0.885,-3.12351 -0.88499,-0.885 -3.07146,-0.885 -3.90439,0 -3.85233,2.86322 0,0.62471 -0.57265,0.62471 h -4.68527 q -0.41647,0 -0.57265,-0.36441 -0.15617,-0.36441 -0.15617,-1.24941 0,-3.17557 2.65499,-4.94557 2.70704,-1.76999 7.44438,-1.76999 5.04968,0 7.44438,2.18646 2.39469,2.1344 2.39469,6.76762 v 10.82819 q 0,3.33175 0.31235,5.7785 z m -12.75435,-3.6441 q 1.40558,0 2.86322,-0.83294 1.45764,-0.83294 3.43587,-2.81116 v -3.69616 l -3.53999,0.31235 q -3.0194,0.26029 -4.16468,1.14529 -1.14529,0.88499 -1.14529,2.86322 0,1.56176 0.6247,2.29058 0.6247,0.72882 1.92617,0.72882 z m 16.39844,4.21675 q -0.31235,0 -0.46853,-0.20824 -0.10411,-0.20823 0,-0.52058 l 8.69379,-24.20725 q 0.15617,-0.36441 0.31235,-0.52059 0.20824,-0.15618 0.57265,-0.15618 h 5.36203 q 0.67676,0 0.885,0.67677 l 8.69378,24.20725 q 0.0521,0.10411 0.0521,0.31235 0,0.41647 -0.46852,0.41647 h -5.36204 q -0.52059,0 -0.67676,-0.52059 l -3.95646,-12.49406 -0.6247,-2.03029 q -0.93705,-2.96734 -1.19735,-4.06057 h -0.10411 q -0.31236,1.24941 -1.19735,4.2688 l -0.57265,1.87411 -4.00851,12.44201 q -0.15618,0.52059 -0.67676,0.52059 z m 38.36713,0.6247 q -5.62233,0 -8.58967,-2.65499 -2.91528,-2.65499 -2.91528,-7.96497 v -5.62232 q 0,-5.25792 2.96734,-7.91291 2.96734,-2.70705 8.53761,-2.70705 5.57027,0 8.48555,2.70705 2.96734,2.65499 2.96734,7.91291 v 5.62232 q 0,5.30998 -2.91528,7.96497 -2.91528,2.65499 -8.53761,2.65499 z m 0,-5.25792 q 2.7591,0 4.00851,-1.40558 1.30146,-1.45764 1.30146,-4.5291 v -4.47704 q 0,-3.07146 -1.30146,-4.47704 -1.24941,-1.45764 -4.00851,-1.45764 -2.81117,0 -4.11263,1.45764 -1.24941,1.40558 -1.24941,4.47704 v 4.47704 q 0,3.07146 1.24941,4.5291 1.30146,1.40558 4.11263,1.40558 z m 15.92992,4.63322 q -0.36441,0 -0.52059,-0.20824 -0.10411,-0.20823 0.10412,-0.52058 l 3.59204,-5.46616 q 1.97823,-2.96734 2.60293,-3.80028 v -0.10411 q -5.04968,-1.56176 -5.04968,-7.18409 0,-4.06057 2.44675,-6.19497 2.44676,-2.13441 7.39232,-2.13441 h 10.61996 q 0.26029,0 0.41647,0.20824 0.20823,0.15617 0.20823,0.41647 v 24.36342 q 0,0.2603 -0.20823,0.46853 -0.15618,0.15618 -0.41647,0.15618 h -4.89351 q -0.26029,0 -0.46853,-0.15618 -0.15617,-0.20823 -0.15617,-0.46853 v -8.53761 h -4.00851 l -5.36204,8.74585 q -0.20823,0.41647 -0.78088,0.41647 z M 384.66,153.00202 v -7.07997 h -4.84145 q -2.23852,0 -3.17558,0.885 -0.93705,0.885 -0.93705,2.70705 0,1.87411 1.09323,2.70704 1.09323,0.78088 3.53998,0.78088 z m 34.04627,-11.92142 q 0.2603,0 0.41647,0.20824 0.20824,0.15617 0.20824,0.41647 v 24.36342 q 0,0.2603 -0.20824,0.46853 -0.15617,0.15618 -0.41647,0.15618 h -4.94556 q -0.57265,0 -0.57265,-0.62471 v -9.73496 h -9.57878 v 9.73496 q 0,0.2603 -0.20824,0.46853 -0.15617,0.15618 -0.41646,0.15618 h -4.94557 q -0.57265,0 -0.57265,-0.62471 v -24.36342 q 0,-0.62471 0.57265,-0.62471 h 4.94557 q 0.26029,0 0.41646,0.20824 0.20824,0.15617 0.20824,0.41647 v 9.47466 h 9.57878 v -9.47466 q 0,-0.62471 0.57265,-0.62471 z"
         id="path1" />
      <path
         style="stroke-width:0.500001"
         d="m 260.86477,218.75204 q -0.57264,0 -0.57264,-0.62471 v -32.84897 q 0,-0.62471 0.57264,-0.62471 h 4.84145 q 0.26029,0 0.41647,0.20824 0.20823,0.15617 0.20823,0.41647 v 13.9517 q 0,3.59205 -0.15617,5.93468 -0.10412,2.34264 -0.36441,5.20586 h 0.15617 q 0.98912,-2.23852 2.29058,-4.63321 1.30147,-2.3947 3.74822,-6.50733 l 8.43349,-14.15994 q 0.2603,-0.41647 0.72882,-0.41647 h 5.46616 q 0.57264,0 0.57264,0.62471 v 32.84897 q 0,0.62471 -0.57264,0.62471 h -4.84145 q -0.2603,0 -0.46853,-0.15618 -0.15618,-0.20823 -0.15618,-0.46853 v -13.327 q 0,-6.40321 0.46853,-11.66112 h -0.15617 q -1.04118,2.1344 -2.3947,4.52909 -1.30146,2.3947 -4.11263,7.13203 l -7.91291,13.53524 q -0.26029,0.41647 -0.72882,0.41647 z m 44.1978,0.6247 q -10.82819,0 -10.82819,-10.41172 v -16.24228 q 0,-4.94557 2.65499,-7.5485 2.65499,-2.60293 8.12114,-2.60293 4.89351,0 7.39232,1.97823 2.49882,1.97822 2.49882,5.83056 0,2.86322 -1.14529,4.89351 -1.09323,1.97822 -3.0194,2.91528 v 0.10412 q 5.83056,0.88499 5.83056,7.70467 v 2.44675 q 0,5.30998 -2.96734,8.12115 -2.96734,2.81116 -8.53761,2.81116 z m -1.45764,-21.65638 q 2.55087,-0.52058 3.9044,-1.92617 1.35352,-1.40558 1.35352,-3.95645 0,-2.18646 -0.98911,-3.17557 -0.98912,-0.98912 -3.07146,-0.98912 -4.47704,0 -4.47704,4.63322 v 6.09085 z m 1.66588,16.39846 q 5.20586,0 5.20586,-5.7785 v -2.44676 q 0,-2.23852 -1.04118,-3.22763 -0.98911,-1.04117 -3.17557,-1.04117 -2.18646,0 -5.93468,1.04117 v 5.7785 q 0,2.96734 1.14529,4.32087 1.19735,1.35352 3.80028,1.35352 z m 37.3781,4.06057 q 0,0.57265 -0.57264,0.57265 h -4.32086 q -0.52059,0 -0.67677,-0.67676 -0.20823,-1.19735 -0.46852,-3.2797 -2.29058,2.34264 -4.32087,3.48793 -2.03028,1.09323 -4.47704,1.09323 -3.12351,0 -4.78939,-1.87411 -1.66587,-1.87411 -1.66587,-5.36204 0,-2.70704 1.04117,-4.37292 1.04117,-1.71793 3.38381,-2.65499 2.34263,-0.93705 6.35115,-1.30146 l 4.06057,-0.36441 v -2.08235 q 0,-2.23852 -0.885,-3.12351 -0.88499,-0.885 -3.07146,-0.885 -3.90439,0 -3.85233,2.86322 0,0.62471 -0.57265,0.62471 h -4.68527 q -0.41647,0 -0.57265,-0.36441 -0.15617,-0.36441 -0.15617,-1.24941 0,-3.17557 2.65499,-4.94557 2.70704,-1.76999 7.44438,-1.76999 5.04968,0 7.44438,2.18646 2.39469,2.13441 2.39469,6.76762 v 10.82819 q 0,3.33175 0.31235,5.77851 z m -12.75435,-3.6441 q 1.40558,0 2.86322,-0.83294 1.45764,-0.83293 3.43587,-2.81116 v -3.69616 l -3.53999,0.31235 q -3.0194,0.26029 -4.16469,1.14529 -1.14528,0.88499 -1.14528,2.86322 0,1.56176 0.6247,2.29058 0.6247,0.72882 1.92617,0.72882 z m 40.29334,-21.39608 q 0.26029,0 0.41647,0.20823 0.20823,0.15618 0.20823,0.41647 v 24.36342 q 0,0.2603 -0.20823,0.46853 -0.15618,0.15618 -0.41647,0.15618 h -4.94557 q -0.57264,0 -0.57264,-0.62471 v -9.73495 h -9.57878 v 9.73495 q 0,0.2603 -0.20824,0.46853 -0.15617,0.15618 -0.41647,0.15618 h -4.94556 q -0.57265,0 -0.57265,-0.62471 v -24.36342 q 0,-0.6247 0.57265,-0.6247 h 4.94556 q 0.2603,0 0.41647,0.20823 0.20824,0.15618 0.20824,0.41647 v 9.47466 h 9.57878 v -9.47466 q 0,-0.6247 0.57264,-0.6247 z m 18.06438,26.23753 q -5.62233,0 -8.58967,-2.65499 -2.91528,-2.65499 -2.91528,-7.96496 v -5.62233 q 0,-5.25792 2.96734,-7.91291 2.96734,-2.70705 8.53761,-2.70705 5.57027,0 8.48555,2.70705 2.96734,2.65499 2.96734,7.91291 v 5.62233 q 0,5.30997 -2.91528,7.96496 -2.91528,2.65499 -8.53761,2.65499 z m 0,-5.25792 q 2.7591,0 4.00851,-1.40558 1.30147,-1.45764 1.30147,-4.5291 v -4.47704 q 0,-3.07146 -1.30147,-4.47704 -1.24941,-1.45764 -4.00851,-1.45764 -2.81117,0 -4.11263,1.45764 -1.24941,1.40558 -1.24941,4.47704 v 4.47704 q 0,3.07146 1.24941,4.5291 1.30146,1.40558 4.11263,1.40558 z m 28.16373,5.25792 q -10.82819,0 -10.82819,-10.41172 v -16.24228 q 0,-4.94557 2.65499,-7.5485 2.65499,-2.60293 8.12114,-2.60293 4.89351,0 7.39232,1.97823 2.49882,1.97822 2.49882,5.83056 0,2.86322 -1.14529,4.89351 -1.09323,1.97822 -3.0194,2.91528 v 0.10412 q 5.83056,0.88499 5.83056,7.70467 v 2.44675 q 0,5.30998 -2.96734,8.12115 -2.96734,2.81116 -8.53761,2.81116 z m -1.45764,-21.65638 q 2.55087,-0.52058 3.90439,-1.92617 1.35353,-1.40558 1.35353,-3.95645 0,-2.18646 -0.98912,-3.17557 -0.98911,-0.98912 -3.07145,-0.98912 -4.47704,0 -4.47704,4.63322 v 6.09085 z m 1.66587,16.39846 q 5.20587,0 5.20587,-5.7785 v -2.44676 q 0,-2.23852 -1.04118,-3.22763 -0.98911,-1.04117 -3.17557,-1.04117 -2.18646,0 -5.93468,1.04117 v 5.7785 q 0,2.96734 1.14529,4.32087 1.19734,1.35352 3.80027,1.35352 z"
         id="path2" />
    </g>
  </g>
</svg>
